<svg width="200" height="40" viewBox="0 0 200 70" fill="none" xmlns="http://www.w3.org/2000/svg">
<path d="M0 0V4.788H38.928V0H0ZM44.448 0V4.788H99.92C99.92 4.788 94.256 0 86.752 0H44.448ZM110.808 0V4.788H144.368L142.376 0H110.808ZM168.432 0L166.44 4.788H199.696V0H168.432ZM0 9.317V14.105H38.928V9.317H0ZM44.448 9.324V14.105H106.36C106.36 14.105 105.64 10.416 104.376 9.324H44.448ZM110.808 9.324V14.105H148.048L146.208 9.324H110.808ZM164.448 9.324L162.608 14.105H199.704V9.324H164.448ZM11.184 18.627V23.422H28.04V18.627H11.184ZM55.632 18.627V23.422H72.488V18.627H55.632ZM88.888 18.627V23.422H105.744C105.744 23.422 106.816 20.888 106.816 18.627H88.888ZM121.992 18.627V23.422H151.88L149.888 18.627H121.992ZM160.776 18.627L158.776 23.422H188.816V18.627H160.776ZM11.184 27.951V32.739H28.04V27.951H11.184ZM55.632 27.951V32.739H98.696C98.696 32.739 102.296 30.282 103.448 27.951H55.632ZM121.992 27.951V32.739H138.848V30.072L139.92 32.739H170.8L171.952 30.072V32.739H188.808V27.951H157.16L155.48 32.004L153.792 27.951H121.992ZM11.184 37.261V42.049H28.04V37.261H11.184ZM55.632 37.261V42.049H103.448C102.304 39.725 98.696 37.261 98.696 37.261H55.632ZM121.992 37.261V42.049H138.848V37.261H121.992ZM141.912 37.261L143.952 42.049H167.112L169.048 37.261H141.912ZM171.952 37.261V42.049H188.808V37.261H171.952ZM11.184 46.578V51.366H28.04V46.578H11.184ZM55.632 46.578V51.366H72.488V46.578H55.632ZM88.888 46.578V51.366H106.816C106.816 49.105 105.744 46.578 105.744 46.578H88.888ZM121.992 46.578V51.366H138.848V46.578H121.992ZM145.744 46.578L147.72 51.366H163.24L165.232 46.578H145.744ZM171.952 46.578V51.366H188.808V46.578H171.952ZM0.304 55.888V60.683H39.232V55.888H0.304ZM44.448 55.888V60.683H104.376C105.64 59.584 106.36 55.888 106.36 55.888H44.448ZM111.112 55.888V60.683H138.856V55.888H111.112ZM149.576 55.888L151.608 60.683H159.504L161.408 55.888H149.576ZM171.952 55.888V60.683H200V55.888H171.952ZM0.304 65.212V70H39.232V65.212H0.304ZM44.448 65.212V69.993H86.752C94.256 69.993 99.92 65.212 99.92 65.212H44.448ZM111.112 65.212V70H138.856V65.212H111.112ZM153.432 65.212L155.384 69.986L155.72 69.993L157.704 65.212H153.432ZM171.952 65.212V70H200V65.212H171.952Z" fill="#CED4DA"/>
</svg>
