<svg width="155" height="40" viewBox="0 0 155 40" fill="none" xmlns="http://www.w3.org/2000/svg">
<path d="M0 0V2.736H30.1692V0H0ZM34.4472 0V2.736H77.438C77.438 2.736 73.0484 0 67.2328 0H34.4472ZM85.8762 0V2.736H111.885L110.341 0H85.8762ZM130.535 0L128.991 2.736H154.764V0H130.535ZM0 5.324V8.06H30.1692V5.324H0ZM34.4472 5.328V8.06H82.429C82.429 8.06 81.871 5.952 80.8914 5.328H34.4472ZM85.8762 5.328V8.06H114.737L113.311 5.328H85.8762ZM127.447 5.328L126.021 8.06H154.771V5.328H127.447ZM8.6676 10.644V13.384H21.731V10.644H8.6676ZM43.1148 10.644V13.384H56.1782V10.644H43.1148ZM68.8882 10.644V13.384H81.9516C81.9516 13.384 82.7824 11.936 82.7824 10.644H68.8882ZM94.5438 10.644V13.384H117.707L116.163 10.644H94.5438ZM124.601 10.644L123.051 13.384H146.332V10.644H124.601ZM8.6676 15.972V18.708H21.731V15.972H8.6676ZM43.1148 15.972V18.708H76.4894C76.4894 18.708 79.2794 17.304 80.1722 15.972H43.1148ZM94.5438 15.972V18.708H107.607V17.184L108.438 18.708H132.37L133.263 17.184V18.708H146.326V15.972H121.799L120.497 18.288L119.189 15.972H94.5438ZM8.6676 21.292V24.028H21.731V21.292H8.6676ZM43.1148 21.292V24.028H80.1722C79.2856 22.7 76.4894 21.292 76.4894 21.292H43.1148ZM94.5438 21.292V24.028H107.607V21.292H94.5438ZM109.982 21.292L111.563 24.028H129.512L131.012 21.292H109.982ZM133.263 21.292V24.028H146.326V21.292H133.263ZM8.6676 26.616V29.352H21.731V26.616H8.6676ZM43.1148 26.616V29.352H56.1782V26.616H43.1148ZM68.8882 26.616V29.352H82.7824C82.7824 28.06 81.9516 26.616 81.9516 26.616H68.8882ZM94.5438 26.616V29.352H107.607V26.616H94.5438ZM112.952 26.616L114.483 29.352H126.511L128.055 26.616H112.952ZM133.263 26.616V29.352H146.326V26.616H133.263ZM0.2356 31.936V34.676H30.4048V31.936H0.2356ZM34.4472 31.936V34.676H80.8914C81.871 34.048 82.429 31.936 82.429 31.936H34.4472ZM86.1118 31.936V34.676H107.613V31.936H86.1118ZM115.921 31.936L117.496 34.676H123.616L125.091 31.936H115.921ZM133.263 31.936V34.676H155V31.936H133.263ZM0.2356 37.264V40H30.4048V37.264H0.2356ZM34.4472 37.264V39.996H67.2328C73.0484 39.996 77.438 37.264 77.438 37.264H34.4472ZM86.1118 37.264V40H107.613V37.264H86.1118ZM118.91 37.264L120.423 39.992L120.683 39.996L122.221 37.264H118.91ZM133.263 37.264V40H155V37.264H133.263Z" fill="#CED4DA"/>
</svg>
