<svg width="129" height="129" viewBox="0 0 129 129" fill="none" xmlns="http://www.w3.org/2000/svg">
<circle cx="64.5" cy="64.5" r="64.5" fill="#FED136"/>
<path d="M94.8614 62.9546C93.8005 61.8939 92.5131 61.364 90.9973 61.364H89.1802V50.4543C89.1802 43.4847 86.6809 37.5004 81.6807 32.5003C76.6808 27.5001 70.6971 25 63.7265 25C56.7561 25 50.7712 27.5001 45.7718 32.5001C40.7716 37.5004 38.2723 43.4845 38.2723 50.4543V61.364H36.4544C34.9397 61.364 33.6516 61.8939 32.5909 62.9546C31.5302 64.0145 31 65.3027 31 66.8187V99.5456C31 101.06 31.5304 102.349 32.5909 103.41C33.6516 104.469 34.9397 105 36.4544 105H90.9987C92.5145 105 93.8017 104.47 94.8628 103.41C95.9225 102.349 96.4537 101.06 96.4537 99.5456V66.8181C96.4545 65.3033 95.9225 64.0153 94.8614 62.9546ZM78.2717 61.364H49.1814V50.4543C49.1814 46.4393 50.6021 43.011 53.4429 40.1706C56.2841 37.3298 59.7118 35.9097 63.7271 35.9097C67.7429 35.9097 71.1698 37.3296 74.0112 40.1706C76.8512 43.0108 78.2717 46.4393 78.2717 50.4543V61.364Z" fill="white"/>
</svg>
