<svg width="129" height="129" viewBox="0 0 129 129" fill="none" xmlns="http://www.w3.org/2000/svg">
<circle cx="64.5" cy="64.5" r="64.5" fill="#FED136"/>
<g clip-path="url(#clip0_36_22)">
<path d="M48 89C43.6 89 40 92.6 40 97C40 101.4 43.6 105 48 105C52.4 105 56 101.4 56 97C56 92.6 52.4 89 48 89ZM24 25V33H32L46.4 63.4L40.8 73C40.4 74.2 40 75.8 40 77C40 81.4 43.6 85 48 85H96V77H49.6C49.2 77 48.8 76.6 48.8 76.2V75.7998L52.4 68.9998H82C85.2 68.9998 87.6 67.3998 88.8 64.9998L103.2 39C104 38.2 104 37.8 104 37C104 34.6 102.4 33 100 33H40.8L37.2 25H24ZM88 89C83.6 89 80 92.6 80 97C80 101.4 83.6 105 88 105C92.4 105 96 101.4 96 97C96 92.6 92.4 89 88 89Z" fill="white"/>
</g>
<defs>
<clipPath id="clip0_36_22">
<rect width="80" height="80" fill="white" transform="translate(24 25)"/>
</clipPath>
</defs>
</svg>
