<svg width="129" height="129" viewBox="0 0 129 129" fill="none" xmlns="http://www.w3.org/2000/svg">
<circle cx="64.5" cy="64.5" r="64.5" fill="#FED136"/>
<path d="M41.3338 80.0002H86.6669C88.5002 80.0002 90.0691 79.2663 91.3745 77.7965C92.6805 76.3273 93.3333 74.5624 93.3333 72.5003V39.4998C93.3333 37.4371 92.6805 35.6722 91.3745 34.203C90.0691 32.7341 88.5004 32 86.6669 32H41.3338C39.5005 32 37.9308 32.7341 36.6252 34.203C35.3195 35.672 34.667 37.4371 34.667 39.4998V72.5004C34.667 74.5626 35.3195 76.3279 36.6252 77.7967C37.9308 79.2653 39.5005 80.0002 41.3338 80.0002ZM39.9999 39.4998C39.9999 39.0936 40.132 38.7414 40.3958 38.4452C40.6601 38.1487 40.9727 38 41.3338 38H86.6659C87.0275 38 87.34 38.1484 87.6039 38.4452C87.867 38.7422 87.9989 39.0936 87.9989 39.4998V72.5004C87.9989 72.9061 87.867 73.2585 87.6039 73.5545C87.34 73.8514 87.0275 74.0001 86.6659 74.0001H41.3333C40.9721 74.0001 40.6595 73.8518 40.3954 73.5545C40.132 73.2573 39.9999 72.9061 39.9999 72.5004V39.4998Z" fill="white"/>
<path d="M97.3335 83.0007H30.6666H24V87.5C24 88.7507 24.6525 89.8127 25.9581 90.6875C27.2644 91.5622 28.8333 92 30.6666 92H97.3335C99.1665 92 100.736 91.5622 102.041 90.6875C103.347 89.8127 104 88.7507 104 87.5V83.0007H97.3335ZM67.3332 87.5H60.6666C60.2227 87.5 60.0004 87.2494 60.0004 86.75C60.0004 86.2499 60.2227 85.9988 60.6666 85.9988H67.3332C67.7776 85.9988 68.0003 86.2499 68.0003 86.75C68.0003 87.2494 67.7776 87.5 67.3332 87.5Z" fill="white"/>
</svg>
