<svg width="129" height="129" viewBox="0 0 129 129" fill="none" xmlns="http://www.w3.org/2000/svg">
<circle cx="64.5" cy="64.5" r="64.5" fill="#FED136"/>
<path d="M30.8175 41V26.4545H36.3857C37.4368 26.4545 38.3104 26.6203 39.0064 26.9517C39.7071 27.2784 40.2304 27.7259 40.576 28.294C40.9264 28.8622 41.1016 29.5062 41.1016 30.2259C41.1016 30.8177 40.9879 31.3243 40.7607 31.7457C40.5334 32.1624 40.228 32.5009 39.8445 32.7614C39.4609 33.0218 39.0324 33.2088 38.5589 33.3224V33.4645C39.075 33.4929 39.5698 33.6515 40.0433 33.9403C40.5215 34.2244 40.9122 34.6269 41.2152 35.1477C41.5182 35.6686 41.6697 36.2983 41.6697 37.0369C41.6697 37.7898 41.4875 38.4669 41.1229 39.0682C40.7583 39.6648 40.209 40.1359 39.4751 40.4815C38.7412 40.8272 37.8179 41 36.7053 41H30.8175ZM33.4524 38.7983H36.2862C37.2427 38.7983 37.9316 38.616 38.353 38.2514C38.7791 37.8821 38.9922 37.4086 38.9922 36.831C38.9922 36.4001 38.8857 36.0118 38.6726 35.6662C38.4595 35.3158 38.1565 35.0412 37.7635 34.8423C37.3705 34.6387 36.9018 34.5369 36.3572 34.5369H33.4524V38.7983ZM33.4524 32.6406H36.0589C36.5135 32.6406 36.9231 32.5578 37.2876 32.392C37.6522 32.2216 37.9387 31.9825 38.147 31.6747C38.3601 31.3622 38.4666 30.9929 38.4666 30.5668C38.4666 30.0033 38.2678 29.5393 37.87 29.1747C37.477 28.8101 36.8923 28.6278 36.1158 28.6278H33.4524V32.6406ZM48.6779 41.2131C47.5842 41.2131 46.6396 40.9858 45.8441 40.5312C45.0534 40.072 44.445 39.4233 44.0188 38.5852C43.5927 37.7424 43.3796 36.7505 43.3796 35.6094C43.3796 34.4872 43.5927 33.5024 44.0188 32.6548C44.4497 31.8026 45.051 31.1397 45.8228 30.6662C46.5946 30.188 47.5013 29.9489 48.543 29.9489C49.2153 29.9489 49.8498 30.0578 50.4464 30.2756C51.0477 30.4886 51.578 30.8201 52.0373 31.2699C52.5013 31.7197 52.8659 32.2926 53.131 32.9886C53.3962 33.6799 53.5288 34.5038 53.5288 35.4602V36.2486H44.587V34.5156H51.0643C51.0595 34.0232 50.953 33.5852 50.7447 33.2017C50.5363 32.8134 50.2451 32.508 49.8711 32.2855C49.5018 32.063 49.0709 31.9517 48.5785 31.9517C48.0529 31.9517 47.5913 32.0795 47.1935 32.3352C46.7958 32.5862 46.4857 32.9176 46.2631 33.3295C46.0453 33.7367 45.9341 34.1842 45.9293 34.6719V36.1847C45.9293 36.8191 46.0453 37.3636 46.2773 37.8182C46.5094 38.268 46.8337 38.6136 47.2504 38.8551C47.667 39.0919 48.1547 39.2102 48.7134 39.2102C49.0875 39.2102 49.426 39.1581 49.729 39.054C50.0321 38.9451 50.2949 38.7865 50.5174 38.5781C50.7399 38.3698 50.908 38.1117 51.0217 37.804L53.4222 38.0739C53.2707 38.7083 52.9819 39.2623 52.5558 39.7358C52.1344 40.2045 51.5946 40.5691 50.9364 40.8295C50.2783 41.0852 49.5254 41.2131 48.6779 41.2131ZM60.7784 41V26.4545H66.233C67.3504 26.4545 68.2879 26.6629 69.0455 27.0795C69.8078 27.4962 70.383 28.0691 70.7713 28.7983C71.1643 29.5227 71.3608 30.3466 71.3608 31.2699C71.3608 32.2027 71.1643 33.0312 70.7713 33.7557C70.3783 34.4801 69.7983 35.0507 69.0312 35.4673C68.2642 35.8793 67.3196 36.0852 66.1974 36.0852H62.5824V33.919H65.8423C66.4957 33.919 67.0308 33.8054 67.4474 33.5781C67.8641 33.3509 68.1719 33.0384 68.3707 32.6406C68.5743 32.2429 68.6761 31.786 68.6761 31.2699C68.6761 30.7538 68.5743 30.2992 68.3707 29.9062C68.1719 29.5133 67.8617 29.2079 67.4403 28.9901C67.0237 28.7675 66.4863 28.6562 65.8281 28.6562H63.4134V41H60.7784ZM76.4798 41.2202C75.7885 41.2202 75.1658 41.0971 74.6119 40.8509C74.0626 40.5999 73.627 40.2306 73.305 39.7429C72.9878 39.2552 72.8292 38.6539 72.8292 37.9389C72.8292 37.3234 72.9428 36.8144 73.1701 36.4119C73.3974 36.0095 73.7075 35.6875 74.1005 35.446C74.4935 35.2045 74.9362 35.0223 75.4286 34.8991C75.9258 34.7713 76.4395 34.679 76.9698 34.6222C77.609 34.5559 78.1275 34.4967 78.5252 34.4446C78.9229 34.3878 79.2118 34.3026 79.3917 34.1889C79.5763 34.0705 79.6687 33.8883 79.6687 33.642V33.5994C79.6687 33.0644 79.5101 32.6501 79.1928 32.3565C78.8756 32.063 78.4187 31.9162 77.8221 31.9162C77.1924 31.9162 76.6928 32.0535 76.3235 32.3281C75.9589 32.6027 75.7127 32.9271 75.5849 33.3011L73.1843 32.9602C73.3737 32.2973 73.6862 31.7434 74.1218 31.2983C74.5574 30.8485 75.0901 30.5123 75.7198 30.2898C76.3496 30.0625 77.0456 29.9489 77.8079 29.9489C78.3335 29.9489 78.8567 30.0104 79.3775 30.1335C79.8983 30.2566 80.3742 30.4602 80.805 30.7443C81.2359 31.0237 81.5816 31.4048 81.842 31.8878C82.1071 32.3707 82.2397 32.9744 82.2397 33.6989V41H79.7681V39.5014H79.6829C79.5266 39.8045 79.3065 40.0885 79.0224 40.3537C78.743 40.6141 78.3903 40.8248 77.9641 40.9858C77.5427 41.142 77.0479 41.2202 76.4798 41.2202ZM77.1474 39.331C77.6635 39.331 78.1109 39.2292 78.4897 39.0256C78.8685 38.8172 79.1597 38.5426 79.3633 38.2017C79.5716 37.8608 79.6758 37.4891 79.6758 37.0866V35.8011C79.5953 35.8674 79.458 35.929 79.2638 35.9858C79.0745 36.0426 78.8614 36.0923 78.6246 36.1349C78.3879 36.1776 78.1535 36.2154 77.9215 36.2486C77.6895 36.2817 77.4883 36.3101 77.3178 36.3338C76.9343 36.3859 76.591 36.4711 76.288 36.5895C75.985 36.7079 75.7459 36.8736 75.5707 37.0866C75.3955 37.295 75.3079 37.5649 75.3079 37.8963C75.3079 38.3698 75.4807 38.7273 75.8263 38.9688C76.172 39.2102 76.6123 39.331 77.1474 39.331ZM84.8249 41V30.0909H87.3178V31.9091H87.4315C87.6303 31.2794 87.9712 30.794 88.4542 30.4531C88.9419 30.1075 89.4982 29.9347 90.1232 29.9347C90.2653 29.9347 90.4239 29.9418 90.5991 29.956C90.779 29.9654 90.9281 29.982 91.0465 30.0057V32.3707C90.9376 32.3329 90.7648 32.2997 90.5281 32.2713C90.296 32.2382 90.0711 32.2216 89.8533 32.2216C89.3846 32.2216 88.9632 32.3234 88.5891 32.527C88.2198 32.7259 87.9286 33.0028 87.7156 33.358C87.5025 33.7131 87.396 34.1226 87.396 34.5866V41H84.8249ZM98.788 30.0909V32.0795H92.5167V30.0909H98.788ZM94.065 27.4773H96.636V37.7188C96.636 38.0644 96.6881 38.3295 96.7923 38.5142C96.9012 38.6941 97.0432 38.8172 97.2184 38.8835C97.3936 38.9498 97.5877 38.983 97.8008 38.983C97.9618 38.983 98.1085 38.9711 98.2411 38.9474C98.3784 38.9238 98.4826 38.9025 98.5536 38.8835L98.9869 40.8935C98.8496 40.9408 98.6531 40.9929 98.3974 41.0497C98.1464 41.1065 97.8387 41.1397 97.4741 41.1491C96.8301 41.1681 96.2501 41.071 95.734 40.858C95.2179 40.6402 94.8084 40.304 94.5053 39.8494C94.207 39.3949 94.0603 38.8267 94.065 38.1449V27.4773ZM47.1447 57.7273C47.1447 59.2945 46.8511 60.6368 46.264 61.7543C45.6816 62.867 44.8862 63.7192 43.8777 64.3111C42.8739 64.9029 41.7351 65.1989 40.4615 65.1989C39.1878 65.1989 38.0467 64.9029 37.0382 64.3111C36.0344 63.7145 35.2389 62.8598 34.6518 61.7472C34.0694 60.6297 33.7782 59.2898 33.7782 57.7273C33.7782 56.16 34.0694 54.8201 34.6518 53.7074C35.2389 52.59 36.0344 51.7353 37.0382 51.1435C38.0467 50.5516 39.1878 50.2557 40.4615 50.2557C41.7351 50.2557 42.8739 50.5516 43.8777 51.1435C44.8862 51.7353 45.6816 52.59 46.264 53.7074C46.8511 54.8201 47.1447 56.16 47.1447 57.7273ZM44.4956 57.7273C44.4956 56.6241 44.3227 55.6937 43.9771 54.9361C43.6362 54.1738 43.1627 53.5985 42.5566 53.2102C41.9506 52.8172 41.2522 52.6207 40.4615 52.6207C39.6708 52.6207 38.9724 52.8172 38.3663 53.2102C37.7602 53.5985 37.2844 54.1738 36.9387 54.9361C36.5978 55.6937 36.4274 56.6241 36.4274 57.7273C36.4274 58.8305 36.5978 59.7633 36.9387 60.5256C37.2844 61.2831 37.7602 61.8584 38.3663 62.2514C38.9724 62.6397 39.6708 62.8338 40.4615 62.8338C41.2522 62.8338 41.9506 62.6397 42.5566 62.2514C43.1627 61.8584 43.6362 61.2831 43.9771 60.5256C44.3227 59.7633 44.4956 58.8305 44.4956 57.7273ZM55.0478 54.0909V56.0795H48.5989V54.0909H55.0478ZM50.2111 65V53.0611C50.2111 52.3272 50.3626 51.7164 50.6657 51.2287C50.9734 50.741 51.3854 50.3764 51.9015 50.1349C52.4176 49.8935 52.9905 49.7727 53.6202 49.7727C54.0653 49.7727 54.4606 49.8082 54.8063 49.8793C55.1519 49.9503 55.4076 50.0142 55.5733 50.071L55.062 52.0597C54.9531 52.0265 54.8158 51.9934 54.65 51.9602C54.4843 51.9223 54.2997 51.9034 54.0961 51.9034C53.6178 51.9034 53.2793 52.0194 53.0804 52.2514C52.8863 52.4787 52.7892 52.8054 52.7892 53.2315V65H50.2111ZM75.133 57.7273C75.133 59.2945 74.8394 60.6368 74.2523 61.7543C73.6699 62.867 72.8745 63.7192 71.8659 64.3111C70.8622 64.9029 69.7234 65.1989 68.4498 65.1989C67.1761 65.1989 66.035 64.9029 65.0265 64.3111C64.0227 63.7145 63.2272 62.8598 62.6401 61.7472C62.0577 60.6297 61.7665 59.2898 61.7665 57.7273C61.7665 56.16 62.0577 54.8201 62.6401 53.7074C63.2272 52.59 64.0227 51.7353 65.0265 51.1435C66.035 50.5516 67.1761 50.2557 68.4498 50.2557C69.7234 50.2557 70.8622 50.5516 71.8659 51.1435C72.8745 51.7353 73.6699 52.59 74.2523 53.7074C74.8394 54.8201 75.133 56.16 75.133 57.7273ZM72.4838 57.7273C72.4838 56.6241 72.311 55.6937 71.9654 54.9361C71.6245 54.1738 71.151 53.5985 70.5449 53.2102C69.9389 52.8172 69.2405 52.6207 68.4498 52.6207C67.659 52.6207 66.9606 52.8172 66.3546 53.2102C65.7485 53.5985 65.2727 54.1738 64.927 54.9361C64.5861 55.6937 64.4157 56.6241 64.4157 57.7273C64.4157 58.8305 64.5861 59.7633 64.927 60.5256C65.2727 61.2831 65.7485 61.8584 66.3546 62.2514C66.9606 62.6397 67.659 62.8338 68.4498 62.8338C69.2405 62.8338 69.9389 62.6397 70.5449 62.2514C71.151 61.8584 71.6245 61.2831 71.9654 60.5256C72.311 59.7633 72.4838 58.8305 72.4838 57.7273ZM84.4636 60.4119V54.0909H87.0346V65H84.5417V63.0611H84.4281C84.1819 63.6719 83.777 64.1714 83.2136 64.5597C82.6549 64.9479 81.966 65.142 81.1468 65.142C80.4319 65.142 79.7998 64.9834 79.2505 64.6662C78.706 64.3442 78.2799 63.8778 77.9721 63.267C77.6644 62.6515 77.5105 61.9081 77.5105 61.0369V54.0909H80.0815V60.6392C80.0815 61.3305 80.2709 61.8797 80.6497 62.2869C81.0285 62.6941 81.5256 62.8977 82.1412 62.8977C82.5199 62.8977 82.8869 62.8054 83.242 62.6207C83.5971 62.4361 83.8883 62.1615 84.1156 61.7969C84.3476 61.4276 84.4636 60.9659 84.4636 60.4119ZM89.6784 65V54.0909H92.1713V55.9091H92.285C92.4838 55.2794 92.8248 54.794 93.3077 54.4531C93.7954 54.1075 94.3517 53.9347 94.9767 53.9347C95.1188 53.9347 95.2774 53.9418 95.4526 53.956C95.6325 53.9654 95.7817 53.982 95.9 54.0057V56.3707C95.7911 56.3329 95.6183 56.2997 95.3816 56.2713C95.1496 56.2382 94.9247 56.2216 94.7069 56.2216C94.2381 56.2216 93.8167 56.3234 93.4426 56.527C93.0733 56.7259 92.7821 57.0028 92.5691 57.358C92.356 57.7131 92.2495 58.1226 92.2495 58.5866V65H89.6784ZM44.5426 78.4531C44.4763 77.8329 44.197 77.3499 43.7045 77.0043C43.2169 76.6586 42.5824 76.4858 41.8011 76.4858C41.2519 76.4858 40.7808 76.5687 40.3878 76.7344C39.9948 76.9001 39.6941 77.125 39.4858 77.4091C39.2775 77.6932 39.1709 78.0175 39.1662 78.3821C39.1662 78.6851 39.2348 78.9479 39.3722 79.1705C39.5142 79.393 39.706 79.5824 39.9474 79.7386C40.1889 79.8902 40.4564 80.018 40.75 80.1222C41.0436 80.2263 41.3395 80.3139 41.6378 80.3849L43.0014 80.7259C43.5507 80.8537 44.0786 81.0265 44.5852 81.2443C45.0966 81.4621 45.5535 81.7367 45.956 82.0682C46.3632 82.3996 46.6851 82.7997 46.9219 83.2685C47.1586 83.7372 47.277 84.2865 47.277 84.9162C47.277 85.7685 47.0592 86.5189 46.6236 87.1676C46.188 87.8116 45.5582 88.3158 44.7344 88.6804C43.9152 89.0402 42.9233 89.2202 41.7585 89.2202C40.6269 89.2202 39.6444 89.045 38.8111 88.6946C37.9825 88.3442 37.3338 87.8329 36.8651 87.1605C36.401 86.4882 36.1501 85.669 36.1122 84.7031H38.7045C38.7424 85.2098 38.8987 85.6312 39.1733 85.9673C39.4479 86.3035 39.8054 86.5545 40.2457 86.7202C40.6908 86.8859 41.188 86.9688 41.7372 86.9688C42.3101 86.9688 42.812 86.8835 43.2429 86.7131C43.6785 86.5379 44.0194 86.2964 44.2656 85.9886C44.5118 85.6761 44.6373 85.3116 44.642 84.8949C44.6373 84.5161 44.526 84.2036 44.3082 83.9574C44.0904 83.7064 43.785 83.4981 43.392 83.3324C43.0038 83.1619 42.5492 83.0104 42.0284 82.8778L40.3736 82.4517C39.1757 82.1439 38.2287 81.6776 37.5327 81.0526C36.8414 80.4228 36.4957 79.5871 36.4957 78.5455C36.4957 77.6884 36.7277 76.938 37.1918 76.294C37.6605 75.6501 38.2973 75.1506 39.1023 74.7955C39.9072 74.4356 40.8187 74.2557 41.8366 74.2557C42.8688 74.2557 43.7732 74.4356 44.5497 74.7955C45.331 75.1506 45.9441 75.6454 46.3892 76.2798C46.8343 76.9096 47.0639 77.634 47.0781 78.4531H44.5426ZM54.9599 78.0909V80.0795H48.6886V78.0909H54.9599ZM50.2369 75.4773H52.8079V85.7188C52.8079 86.0644 52.86 86.3295 52.9641 86.5142C53.073 86.6941 53.2151 86.8172 53.3903 86.8835C53.5655 86.9498 53.7596 86.983 53.9727 86.983C54.1336 86.983 54.2804 86.9711 54.413 86.9474C54.5503 86.9238 54.6545 86.9025 54.7255 86.8835L55.1587 88.8935C55.0214 88.9408 54.8249 88.9929 54.5692 89.0497C54.3183 89.1065 54.0105 89.1397 53.646 89.1491C53.002 89.1681 52.422 89.071 51.9059 88.858C51.3898 88.6402 50.9802 88.304 50.6772 87.8494C50.3789 87.3949 50.2321 86.8267 50.2369 86.1449V75.4773ZM61.7514 89.2131C60.6861 89.2131 59.7628 88.9787 58.9815 88.5099C58.2003 88.0412 57.5942 87.3854 57.1634 86.5426C56.7372 85.6998 56.5241 84.715 56.5241 83.5881C56.5241 82.4612 56.7372 81.474 57.1634 80.6264C57.5942 79.7789 58.2003 79.1207 58.9815 78.652C59.7628 78.1832 60.6861 77.9489 61.7514 77.9489C62.8168 77.9489 63.7401 78.1832 64.5213 78.652C65.3026 79.1207 65.9063 79.7789 66.3324 80.6264C66.7633 81.474 66.9787 82.4612 66.9787 83.5881C66.9787 84.715 66.7633 85.6998 66.3324 86.5426C65.9063 87.3854 65.3026 88.0412 64.5213 88.5099C63.7401 88.9787 62.8168 89.2131 61.7514 89.2131ZM61.7656 87.1534C62.3433 87.1534 62.8262 86.9948 63.2145 86.6776C63.6027 86.3556 63.8916 85.9247 64.081 85.3849C64.2751 84.8452 64.3722 84.2438 64.3722 83.581C64.3722 82.9134 64.2751 82.3097 64.081 81.7699C63.8916 81.2254 63.6027 80.7921 63.2145 80.4702C62.8262 80.1482 62.3433 79.9872 61.7656 79.9872C61.1738 79.9872 60.6813 80.1482 60.2884 80.4702C59.9001 80.7921 59.6089 81.2254 59.4148 81.7699C59.2254 82.3097 59.1307 82.9134 59.1307 83.581C59.1307 84.2438 59.2254 84.8452 59.4148 85.3849C59.6089 85.9247 59.9001 86.3556 60.2884 86.6776C60.6813 86.9948 61.1738 87.1534 61.7656 87.1534ZM69.1609 89V78.0909H71.6538V79.9091H71.7674C71.9663 79.2794 72.3072 78.794 72.7901 78.4531C73.2778 78.1075 73.8342 77.9347 74.4592 77.9347C74.6012 77.9347 74.7598 77.9418 74.935 77.956C75.1149 77.9654 75.2641 77.982 75.3825 78.0057V80.3707C75.2736 80.3329 75.1007 80.2997 74.864 80.2713C74.632 80.2382 74.4071 80.2216 74.1893 80.2216C73.7205 80.2216 73.2991 80.3234 72.9251 80.527C72.5558 80.7259 72.2646 81.0028 72.0515 81.358C71.8384 81.7131 71.7319 82.1226 71.7319 82.5866V89H69.1609ZM79.0206 93.0909C78.6702 93.0909 78.3459 93.0625 78.0476 93.0057C77.754 92.9536 77.5196 92.892 77.3445 92.821L77.9411 90.8182C78.3151 90.9271 78.6489 90.9792 78.9425 90.9744C79.236 90.9697 79.4941 90.8774 79.7166 90.6974C79.9439 90.5223 80.1357 90.2287 80.2919 89.8168L80.5121 89.2273L76.5561 78.0909H79.2834L81.7976 86.3295H81.9112L84.4325 78.0909H87.1669L82.799 90.321C82.5954 90.8987 82.3255 91.3935 81.9893 91.8054C81.6532 92.2221 81.2412 92.5393 80.7536 92.7571C80.2706 92.9796 79.6929 93.0909 79.0206 93.0909ZM92.0923 74.4545L91.858 84.7244H89.571L89.3438 74.4545H92.0923ZM90.7145 89.1562C90.2836 89.1562 89.9143 89.0047 89.6065 88.7017C89.3035 88.3987 89.152 88.0294 89.152 87.5938C89.152 87.1676 89.3035 86.803 89.6065 86.5C89.9143 86.197 90.2836 86.0455 90.7145 86.0455C91.1359 86.0455 91.5005 86.197 91.8082 86.5C92.1207 86.803 92.277 87.1676 92.277 87.5938C92.277 87.8826 92.2036 88.1454 92.0568 88.3821C91.9148 88.6188 91.7254 88.8082 91.4886 88.9503C91.2566 89.0876 90.9986 89.1562 90.7145 89.1562Z" fill="white"/>
</svg>
